HIERARCHY
ROOT Hips
{
  OFFSET -2.200 40.012 -218.454
  CHANNELS 6 Xposition Yposition Zposition Zrotation Xrotation Yrotation
  JOINT LeftUpLeg
  {
    OFFSET 7.426 -5.511 4.283
    CHANNELS 6 Xposition Yposition Zposition Zrotation Xrotation Yrotation
    JOINT LeftLeg
    {
      OFFSET 0.000 -44.354 0.000
      CHANNELS 6 Xposition Yposition Zposition Zrotation Xrotation Yrotation
      JOINT LeftFoot
      {
        OFFSET -0.000 -38.400 -0.000
        CHANNELS 6 Xposition Yposition Zposition Zrotation Xrotation Yrotation
        End Site
        {
          OFFSET 0.000 -9.463 5.464
        }
      }
    }
  }
  JOINT RightUpLeg
  {
    OFFSET -7.369 -5.787 4.092
    CHANNELS 6 Xposition Yposition Zposition Zrotation Xrotation Yrotation
    JOINT RightLeg
    {
      OFFSET 0.000 -44.748 0.000
      CHANNELS 6 Xposition Yposition Zposition Zrotation Xrotation Yrotation
      JOINT RightFoot
      {
        OFFSET -0.000 -38.411 -0.000
        CHANNELS 6 Xposition Yposition Zposition Zrotation Xrotation Yrotation
        End Site
        {
          OFFSET 0.000 -8.879 5.126
        }
      }
    }
  }
  JOINT Spine
  {
    OFFSET 0.000 4.687 -4.687
    CHANNELS 6 Xposition Yposition Zposition Zrotation Xrotation Yrotation
    JOINT LeftShoulder
    {
      OFFSET -0.000 36.302 0.000
      CHANNELS 6 Xposition Yposition Zposition Zrotation Xrotation Yrotation
      JOINT LeftArm
      {
        OFFSET 19.536 0.000 -0.000
        CHANNELS 6 Xposition Yposition Zposition Zrotation Xrotation Yrotation
        JOINT LeftForeArm
        {
          OFFSET 25.052 0.000 0.000
          CHANNELS 6 Xposition Yposition Zposition Zrotation Xrotation Yrotation
          JOINT LeftHand
          {
            OFFSET 24.788 -0.000 -0.000
            CHANNELS 6 Xposition Yposition Zposition Zrotation Xrotation Yrotation
            JOINT LeftHandThumb1
            {
            OFFSET 4.970 -0.620 3.390
            CHANNELS 6 Xposition Yposition Zposition Zrotation Xrotation Yrotation
              JOINT LeftHandThumb2
              {
              OFFSET 2.150 -0.000 0.000
              CHANNELS 6 Xposition Yposition Zposition Zrotation Xrotation Yrotation
                JOINT LeftHandThumb3
                {
                OFFSET 2.200 -0.000 0.000
                CHANNELS 6 Xposition Yposition Zposition Zrotation Xrotation Yrotation
                  JOINT LeftHandThumb4
                  {
                  OFFSET 1.700 -0.000 0.000
                  CHANNELS 6 Xposition Yposition Zposition Zrotation Xrotation Yrotation
                  }
                }
              }
            }
            JOINT LeftHandIndex1
            {
            OFFSET 8.730 0.680 2.070
            CHANNELS 6 Xposition Yposition Zposition Zrotation Xrotation Yrotation
              JOINT LeftHandIndex2
              {
              OFFSET 2.670 -0.000 0.000
              CHANNELS 6 Xposition Yposition Zposition Zrotation Xrotation Yrotation
                JOINT LeftHandIndex3
                {
                OFFSET 2.130 -0.000 0.000
                CHANNELS 6 Xposition Yposition Zposition Zrotation Xrotation Yrotation
                  JOINT LeftHandIndex4
                  {
                  OFFSET 1.800 -0.000 0.000
                  CHANNELS 6 Xposition Yposition Zposition Zrotation Xrotation Yrotation
                  }
                }
              }
            }
            JOINT LeftHandMiddle1
            {
            OFFSET 9.220 0.670 0.550
            CHANNELS 6 Xposition Yposition Zposition Zrotation Xrotation Yrotation
              JOINT LeftHandMiddle2
              {
              OFFSET 2.660 -0.000 0.000
              CHANNELS 6 Xposition Yposition Zposition Zrotation Xrotation Yrotation
                JOINT LeftHandMiddle3
                {
                OFFSET 2.280 -0.000 0.000
                CHANNELS 6 Xposition Yposition Zposition Zrotation Xrotation Yrotation
                  JOINT LeftHandMiddle4
                  {
                  OFFSET 1.500 -0.000 0.000
                  CHANNELS 6 Xposition Yposition Zposition Zrotation Xrotation Yrotation
                  }
                }
              }
            }
            JOINT LeftHandRing1
            {
            OFFSET 9.250 0.670 -1.130
            CHANNELS 6 Xposition Yposition Zposition Zrotation Xrotation Yrotation
              JOINT LeftHandRing2
              {
              OFFSET 2.470 -0.000 0.000
              CHANNELS 6 Xposition Yposition Zposition Zrotation Xrotation Yrotation
                JOINT LeftHandRing3
                {
                OFFSET 2.210 -0.000 0.000
                CHANNELS 6 Xposition Yposition Zposition Zrotation Xrotation Yrotation
                  JOINT LeftHandRing4
                  {
                  OFFSET 1.800 -0.000 0.000
                  CHANNELS 6 Xposition Yposition Zposition Zrotation Xrotation Yrotation
                  }
                }
              }
            }
            JOINT LeftHandPinky1
            {
            OFFSET 9.350 0.660 -2.720
            CHANNELS 6 Xposition Yposition Zposition Zrotation Xrotation Yrotation
              JOINT LeftHandPinky2
              {
              OFFSET 1.630 -0.000 0.000
              CHANNELS 6 Xposition Yposition Zposition Zrotation Xrotation Yrotation
                JOINT LeftHandPinky3
                {
                OFFSET 1.710 -0.000 0.000
                CHANNELS 6 Xposition Yposition Zposition Zrotation Xrotation Yrotation
                  JOINT LeftHandPinky4
                  {
                  OFFSET 1.800 -0.000 0.000
                  CHANNELS 6 Xposition Yposition Zposition Zrotation Xrotation Yrotation
                  }
                }
              }
            }
          }
        }
      }
    }
    JOINT RightShoulder
    {
      OFFSET -0.000 36.302 0.000
      CHANNELS 6 Xposition Yposition Zposition Zrotation Xrotation Yrotation
      JOINT RightArm
      {
        OFFSET -19.893 0.000 -0.000
        CHANNELS 6 Xposition Yposition Zposition Zrotation Xrotation Yrotation
        JOINT RightForeArm
        {
          OFFSET -25.447 0.000 0.000
          CHANNELS 6 Xposition Yposition Zposition Zrotation Xrotation Yrotation
          JOINT RightHand
          {
            OFFSET -25.674 -0.000 -0.000
            CHANNELS 6 Xposition Yposition Zposition Zrotation Xrotation Yrotation
            JOINT RightHandThumb1
            {
            OFFSET -4.970 -0.620 3.390
            CHANNELS 6 Xposition Yposition Zposition Zrotation Xrotation Yrotation
              JOINT RightHandThumb2
              {
              OFFSET -2.150 0.000 0.000
              CHANNELS 6 Xposition Yposition Zposition Zrotation Xrotation Yrotation
                JOINT RightHandThumb3
                {
                OFFSET -2.200 0.000 0.000
                CHANNELS 6 Xposition Yposition Zposition Zrotation Xrotation Yrotation
                  JOINT RightHandThumb4
                  {
                  OFFSET -1.700 0.000 0.000
                  CHANNELS 6 Xposition Yposition Zposition Zrotation Xrotation Yrotation
                  }
                }
              }
            }
            JOINT RightHandIndex1
            {
            OFFSET -8.730 0.680 2.070
            CHANNELS 6 Xposition Yposition Zposition Zrotation Xrotation Yrotation
              JOINT RightHandIndex2
              {
              OFFSET -2.670 0.000 0.000
              CHANNELS 6 Xposition Yposition Zposition Zrotation Xrotation Yrotation
                JOINT RightHandIndex3
                {
                OFFSET -2.130 0.000 0.000
                CHANNELS 6 Xposition Yposition Zposition Zrotation Xrotation Yrotation
                  JOINT RightHandIndex4
                  {
                  OFFSET -1.800 0.000 0.000
                  CHANNELS 6 Xposition Yposition Zposition Zrotation Xrotation Yrotation
                  }
                }
              }
            }
            JOINT RightHandMiddle1
            {
            OFFSET -9.220 0.670 0.550
            CHANNELS 6 Xposition Yposition Zposition Zrotation Xrotation Yrotation
              JOINT RightHandMiddle2
              {
              OFFSET -2.660 0.000 0.000
              CHANNELS 6 Xposition Yposition Zposition Zrotation Xrotation Yrotation
                JOINT RightHandMiddle3
                {
                OFFSET -2.280 0.000 0.000
                CHANNELS 6 Xposition Yposition Zposition Zrotation Xrotation Yrotation
                  JOINT RightHandMiddle4
                  {
                  OFFSET -1.500 0.000 0.000
                  CHANNELS 6 Xposition Yposition Zposition Zrotation Xrotation Yrotation
                  }
                }
              }
            }
            JOINT RightHandRing1
            {
            OFFSET -9.250 0.670 -1.130
            CHANNELS 6 Xposition Yposition Zposition Zrotation Xrotation Yrotation
              JOINT RightHandRing2
              {
              OFFSET -2.470 0.000 0.000
              CHANNELS 6 Xposition Yposition Zposition Zrotation Xrotation Yrotation
                JOINT RightHandRing3
                {
                OFFSET -2.210 0.000 0.000
                CHANNELS 6 Xposition Yposition Zposition Zrotation Xrotation Yrotation
                  JOINT RightHandRing4
                  {
                  OFFSET -1.800 0.000 0.000
                  CHANNELS 6 Xposition Yposition Zposition Zrotation Xrotation Yrotation
                  }
                }
              }
            }
            JOINT RightHandPinky1
            {
            OFFSET -9.350 0.660 -2.720
            CHANNELS 6 Xposition Yposition Zposition Zrotation Xrotation Yrotation
              JOINT RightHandPinky2
              {
              OFFSET -1.630 0.000 0.000
              CHANNELS 6 Xposition Yposition Zposition Zrotation Xrotation Yrotation
                JOINT RightHandPinky3
                {
                OFFSET -1.710 0.000 0.000
                CHANNELS 6 Xposition Yposition Zposition Zrotation Xrotation Yrotation
                  JOINT RightHandPinky4
                  {
                  OFFSET -1.800 0.000 0.000
                  CHANNELS 6 Xposition Yposition Zposition Zrotation Xrotation Yrotation
                  }
                }
              }
            }
          }
        }
      }
    }
    JOINT Neck
    {
      OFFSET -0.000 36.302 0.000
      CHANNELS 6 Xposition Yposition Zposition Zrotation Xrotation Yrotation
      JOINT Head
      {
        OFFSET -0.000 11.885 0.000
        CHANNELS 6 Xposition Yposition Zposition Zrotation Xrotation Yrotation
        End Site
        {
          OFFSET -0.000 0.048 0.000
        }
      }
    }
  }
}
MOTION
Frames:	4
Frame Time:	0.0333333
-2.91189 40.2379 -220.368 -0.436158 9.3762 -3.67299 7.5029 -6.65807 2.34501 6.46099 0.679939 -0.736462 4.47035e-06 -46.0594 9.53674e-05 -6.17364 -1.8505 -0.200131 -1.49012e-06 -38.33 -9.53674e-05 6.06311 -12.6962 4.795 -7.36142 -7.19025 2.16796 -2.73453 0.711082 -0.624869 0 -45.8115 0 7.92254 -3.12233 0.434288 0 -39.0126 -2.38419e-05 -2.93556 -9.35638 -2.13447 0 6.154 -6.15404 0.332634 -9.72174 -0.304272 -2.98023e-06 36.3015 7.15256e-05 -32.2422 1.08856e-05 -15.1506 18.5411 -5.96046e-06 -4.76837e-05 -29.3022 38.0212 -18.1708 24.5262 2.38419e-05 4.76837e-05 4.98881e-06 -1.70755e-06 -32.6077 22.79 -2.38419e-05 -8.9407e-06 -2.28694 0.118659 -11.9441 0.0062 0.0497 0.0339 -45 0 0 0 0.0215 0 0 -45 0 0 0.022 0 0 -45 0 0 0.017 0 0 0 0 -0.0068 0.0873 0.0207 -45 0 0 0 0.0267 0 -80 0 0 0 0.0213 0 -90 0 0 0 0.018 0 0 0 0 -0.0067 0.0922 0.0055 -45 0 0 0 0.0266 0 -80 0 0 0 0.0228 0 -90 0 0 0 0.015 0 0 0 0 -0.0067 0.0925 -0.0113 -45 0 0 0 0.0247 0 -80 0 0 0 0.0221 0 -90 0 0 0 0.018 0 0 0 0 -0.0066 0.0935 -0.0272 -45 0 0 0 0.0163 0 -80 0 0 0 0.0171 0 -90 0 0 0 0.018 0 0 0 0 -2.98023e-06 36.3015 7.15256e-05 27.45 -2.98821e-06 13.8337 -20.2667 0 -2.38419e-05 41.7891 29.9394 18.5052 -24.81 0 2.38419e-05 4.86109e-06 1.70755e-06 25.5027 -25.118 -2.98023e-05 -1.78814e-05 15.8228 -0.289278 -1.12057 -0.0062 0.0497 0.0339 45 0 0 0 0.0215 0 0 -45 0 0 0.022 0 0 -45 0 0 0.017 0 0 0 0 0.0068 0.0873 0.0207 45 0 0 0 0.0267 0 80 0 0 0 0.0213 0 90 0 0 0 0.018 0 0 0 0 0.0067 0.0922 0.0055 45 0 0 0 0.0266 0 80 0 0 0 0.0228 0 90 0 0 0 0.015 0 0 0 0 0.0067 0.0925 -0.0113 45 0 0 0 0.0247 0 80 0 0 0 0.0221 0 90 0 0 0 0.018 0 0 0 0 0.0066 0.0935 -0.0272 45 0 0 0 0.0163 0 80 0 0 0 0.0171 0 90 0 0 0 0.018 0 0 0 0 -2.98023e-06 36.3015 7.15256e-05 -13.5364 40.9849 8.97284 3.72529e-07 19.4361 0 7.68396e-06 -1.70755e-06 1.70755e-06 
-2.94291 40.357 -220.153 -0.367478 9.16787 -3.72416 7.4477 -6.66619 2.30396 6.36315 1.11322 -0.778287 4.47035e-06 -46.2361 0 -6.16732 -2.05744 -0.222273 -5.21541e-06 -38.3167 7.15256e-05 6.00942 -12.7392 4.75211 -7.31125 -7.15472 2.12626 -2.84937 1.02107 -0.606883 2.98023e-06 -46.0436 0 7.97395 -3.14676 0.440557 5.96046e-06 -38.9748 -4.76837e-05 -3.01716 -9.31067 -2.19352 -1.49012e-06 6.14793 -6.14793 0.275587 -9.32374 -0.23859 -1.49012e-06 36.3015 -2.38419e-05 -32.3919 1.34469e-05 -14.4514 18.5506 0 7.15256e-05 -29.5794 44.1044 -15.6855 24.3318 -5.96046e-05 -3.57628e-05 2.4593e-06 8.53774e-06 -27.1495 22.9978 -1.19209e-05 2.98023e-06 -0.99495 0.0147696 -10.4077 0.0062 0.0497 0.0339 -45 0 0 0 0.0215 0 0 -45 0 0 0.022 0 0 -45 0 0 0.017 0 0 0 0 -0.0068 0.0873 0.0207 -45 0 0 0 0.0267 0 -80 0 0 0 0.0213 0 -90 0 0 0 0.018 0 0 0 0 -0.0067 0.0922 0.0055 -45 0 0 0 0.0266 0 -80 0 0 0 0.0228 0 -90 0 0 0 0.015 0 0 0 0 -0.0067 0.0925 -0.0113 -45 0 0 0 0.0247 0 -80 0 0 0 0.0221 0 -90 0 0 0 0.018 0 0 0 0 -0.0066 0.0935 -0.0272 -45 0 0 0 0.0163 0 -80 0 0 0 0.0171 0 -90 0 0 0 0.018 0 0 0 0 -1.49012e-06 36.3015 -2.38419e-05 28.0891 -1.4941e-06 13.2663 -20.174 1.78814e-05 2.38419e-05 42.1965 35.4412 14.2846 -25.5204 0 -3.57628e-05 8.9368e-06 -8.53774e-06 21.8225 -24.6012 0 2.38419e-05 13.7956 -0.328584 -2.41787 -0.0062 0.0497 0.0339 34.8942 0 0 0 0.0215 0 0 -34.8942 0 0 0.022 0 0 -34.8942 0 0 0.017 0 0 0 0 0.0068 0.0873 0.0207 34.8942 0 0 0 0.0267 0 62.0341 0 0 0 0.0213 0 69.7883 0 0 0 0.018 0 0 0 0 0.0067 0.0922 0.0055 34.8942 0 0 0 0.0266 0 62.0341 0 0 0 0.0228 0 69.7883 0 0 0 0.015 0 0 0 0 0.0067 0.0925 -0.0113 34.8942 0 0 0 0.0247 0 62.0341 0 0 0 0.0221 0 69.7883 0 0 0 0.018 0 0 0 0 0.0066 0.0935 -0.0272 34.8942 0 0 0 0.0163 0 62.0341 0 0 0 0.0171 0 69.7883 0 0 0 0.018 0 0 0 0 -1.49012e-06 36.3015 -2.38419e-05 -13.5869 39.9549 8.82223 -5.21541e-06 19.1158 0 9.60496e-06 -6.83019e-06 -8.53774e-07 
-2.9314 40.5722 -219.735 -0.225913 9.57836 -3.93829 7.36374 -6.67115 2.26309 6.15682 1.10693 -0.688286 -1.49012e-06 -46.5415 2.38419e-05 -6.12858 -2.45854 -0.263901 -2.23517e-06 -38.3899 0 6.04261 -12.9256 4.78771 -7.25993 -7.11186 2.10967 -3.0394 0.716123 -0.543191 5.96046e-06 -46.385 -2.38419e-05 8.11961 -3.11813 0.444635 0 -39.005 0 -3.20709 -9.29304 -2.3338 2.98023e-06 6.12655 -6.12655 0.137938 -8.45503 0.00119806 -7.45058e-06 36.3015 4.76837e-05 -32.3673 1.15259e-05 -12.1646 18.388 2.98023e-05 -2.38419e-05 -36.1706 51.4973 -4.23047 24.5509 -1.19209e-05 2.38419e-05 1.27826e-07 5.12264e-06 -20.8943 23.5618 0 5.96046e-06 -0.9995 0.0182541 -6.76466 0.0062 0.0497 0.0339 -27.8383 0 0 0 0.0215 0 0 -27.8383 0 0 0.022 0 0 -27.8383 0 0 0.017 0 0 0 0 -0.0068 0.0873 0.0207 -27.8383 0 0 0 0.0267 0 -49.4903 0 0 0 0.0213 0 -55.6765 0 0 0 0.018 0 0 0 0 -0.0067 0.0922 0.0055 -27.8383 0 0 0 0.0266 0 -49.4903 0 0 0 0.0228 0 -55.6765 0 0 0 0.015 0 0 0 0 -0.0067 0.0925 -0.0113 -27.8383 0 0 0 0.0247 0 -49.4903 0 0 0 0.0221 0 -55.6765 0 0 0 0.018 0 0 0 0 -0.0066 0.0935 -0.0272 -27.8383 0 0 0 0.0163 0 -49.4903 0 0 0 0.0171 0 -55.6765 0 0 0 0.018 0 0 0 0 -7.45058e-06 36.3015 4.76837e-05 29.0776 -2.34788e-06 11.1759 -19.9913 1.19209e-05 -7.15256e-05 48.2554 -10.6965 3.39239 -25.9492 -1.19209e-05 9.53674e-05 12.724 1.17173 5.1748 -23.9755 5.96046e-06 -3.57628e-05 6.91979 -0.479127 -9.04901 -0.0062 0.0497 0.0339 19.1359 0 0 0 0.0215 0 0 -19.1359 0 0 0.022 0 0 -19.1359 0 0 0.017 0 0 0 0 0.0068 0.0873 0.0207 19.1359 0 0 0 0.0267 0 34.0194 0 0 0 0.0213 0 38.2718 0 0 0 0.018 0 0 0 0 0.0067 0.0922 0.0055 19.1359 0 0 0 0.0266 0 34.0194 0 0 0 0.0228 0 38.2718 0 0 0 0.015 0 0 0 0 0.0067 0.0925 -0.0113 19.1359 0 0 0 0.0247 0 34.0194 0 0 0 0.0221 0 38.2718 0 0 0 0.018 0 0 0 0 0.0066 0.0935 -0.0272 19.1359 0 0 0 0.0163 0 34.0194 0 0 0 0.0171 0 38.2718 0 0 0 0.018 0 0 0 0 -7.45058e-06 36.3015 4.76837e-05 -12.944 35.3438 7.5735 7.82311e-06 18.0982 -2.38419e-05 1.20596e-05 -1.02453e-05 1.06722e-06 
-2.9314 40.5722 -219.735 -0.225913 9.57836 -3.93829 7.36374 -6.67115 2.26309 6.15682 1.10693 -0.688286 -1.49012e-06 -46.5415 2.38419e-05 -6.12858 -2.45854 -0.263901 -2.23517e-06 -38.3899 0 6.04261 -12.9256 4.78771 -7.25993 -7.11186 2.10967 -3.0394 0.716123 -0.543191 5.96046e-06 -46.385 -2.38419e-05 8.11961 -3.11813 0.444635 0 -39.005 0 -3.20709 -9.29304 -2.3338 2.98023e-06 6.12655 -6.12655 0.137938 -8.45503 0.00119806 -7.45058e-06 36.3015 4.76837e-05 -32.3673 1.15259e-05 -12.1646 18.388 2.98023e-05 -2.38419e-05 -36.1706 51.4973 -4.23047 24.5509 -1.19209e-05 2.38419e-05 1.27826e-07 5.12264e-06 -20.8943 23.5618 0 5.96046e-06 -0.9995 0.0182541 -6.76466 0.0062 0.0497 0.0339 -27.8383 0 0 0 0.0215 0 0 -27.8383 0 0 0.022 0 0 -27.8383 0 0 0.017 0 0 0 0 -0.0068 0.0873 0.0207 -27.8383 0 0 0 0.0267 0 -49.4903 0 0 0 0.0213 0 -55.6765 0 0 0 0.018 0 0 0 0 -0.0067 0.0922 0.0055 -27.8383 0 0 0 0.0266 0 -49.4903 0 0 0 0.0228 0 -55.6765 0 0 0 0.015 0 0 0 0 -0.0067 0.0925 -0.0113 -27.8383 0 0 0 0.0247 0 -49.4903 0 0 0 0.0221 0 -55.6765 0 0 0 0.018 0 0 0 0 -0.0066 0.0935 -0.0272 -27.8383 0 0 0 0.0163 0 -49.4903 0 0 0 0.0171 0 -55.6765 0 0 0 0.018 0 0 0 0 -7.45058e-06 36.3015 4.76837e-05 29.0776 -2.34788e-06 11.1759 -19.9913 1.19209e-05 -7.15256e-05 48.2554 -10.6965 3.39239 -25.9492 -1.19209e-05 9.53674e-05 12.724 1.17173 5.1748 -23.9755 5.96046e-06 -3.57628e-05 6.91979 -0.479127 -9.04901 -0.0062 0.0497 0.0339 19.1359 0 0 0 0.0215 0 0 -19.1359 0 0 0.022 0 0 -19.1359 0 0 0.017 0 0 0 0 0.0068 0.0873 0.0207 19.1359 0 0 0 0.0267 0 34.0194 0 0 0 0.0213 0 38.2718 0 0 0 0.018 0 0 0 0 0.0067 0.0922 0.0055 19.1359 0 0 0 0.0266 0 34.0194 0 0 0 0.0228 0 38.2718 0 0 0 0.015 0 0 0 0 0.0067 0.0925 -0.0113 19.1359 0 0 0 0.0247 0 34.0194 0 0 0 0.0221 0 38.2718 0 0 0 0.018 0 0 0 0 0.0066 0.0935 -0.0272 19.1359 0 0 0 0.0163 0 34.0194 0 0 0 0.0171 0 38.2718 0 0 0 0.018 0 0 0 0 -7.45058e-06 36.3015 4.76837e-05 -12.944 35.3438 7.5735 7.82311e-06 18.0982 -2.38419e-05 1.20596e-05 -1.02453e-05 1.06722e-06 
